<?xml version="1.0" encoding="UTF-8" standalone="no"?>
<!DOCTYPE svg PUBLIC "-//W3C//DTD SVG 1.1//EN" "http://www.w3.org/Graphics/SVG/1.1/DTD/svg11.dtd">
<svg width="100%" height="100%" viewBox="0 0 1080 1080" version="1.1" xmlns="http://www.w3.org/2000/svg" xmlns:xlink="http://www.w3.org/1999/xlink" xml:space="preserve" xmlns:serif="http://www.serif.com/" style="fill-rule:evenodd;clip-rule:evenodd;stroke-linejoin:round;stroke-miterlimit:2;">
    <rect id="profile" x="0" y="0" width="1080" height="1080" style="fill:none;"/>
    <g id="profile1" serif:id="profile">
        <g>
            <circle cx="540" cy="608.193" r="451.807" style="fill:#180025;"/>
            <circle cx="540" cy="608.193" r="396.896" style="fill:#b39780;"/>
            <circle cx="540" cy="608.193" r="396.896" style="fill:#7289da;"/>
            <path d="M663.217,301.439c-0.114,-39.306 16.487,-91.526 40.332,-139.353c11.597,-23.26 28.902,-51.644 36.834,-74.098c7.753,-21.95 24.303,-25.898 33.389,-27.668c7.28,-1.418 13.431,2.006 17.694,7.8c5.717,7.771 7.618,19.839 4.6,27.119c-6.528,15.747 -9.046,68.489 -6.584,89.536c1.361,11.639 -1.783,23.513 -4.609,35.399c-2.528,10.627 -4.825,21.268 -2.056,31.771c2.325,8.82 2.432,26.632 -3.407,63.732c27.71,18.017 56.973,39.55 77.108,61.93c13.905,15.455 23.452,31.399 25.697,46.867c15.437,15.752 20.799,35.482 33.705,52.825c11.45,15.387 22.28,31.466 30.051,47.924c9.983,7.556 14.599,16.187 18.819,28.63l0.124,0.436c8.42,36.449 6.506,66.998 -4.618,91.488c-11.219,24.701 -31.801,43.365 -61.056,55.653c-0.235,0.099 -0.478,0.178 -0.727,0.236c-4.361,1.017 -7.5,2.084 -10.686,2.736c3.031,3.682 5.691,8.185 7.943,13.384c6.337,14.63 9.583,34.943 9.627,56.823c0.002,0.659 -0.141,1.311 -0.417,1.909c-18.264,39.578 -42.797,75.665 -72.31,107.02c1.48,6.413 1.446,11.595 1.379,15.84c-0.05,3.162 -0.459,5.612 0.802,7.512c9.276,13.977 10.071,32.823 6.34,43.004c-2.236,6.102 -6.256,9.376 -10.477,9.55c-2.355,0.097 -3.409,2.026 -4.272,4.076c-1.487,3.535 -2.134,7.821 -2.977,10.951c-1.208,4.488 -4.577,7.653 -9.442,9.697c-5.044,2.12 -11.905,3.016 -18.441,3.811c0.021,1.271 0.029,3.22 -0.087,4.489c-0.26,2.846 -1.295,5.402 -3.598,7.195c-13.052,10.419 -31.287,17.428 -57.059,19.234c-0.183,6.007 -3.187,12.128 -8.925,18.211l-0.223,0.221c-11.163,10.304 -22.351,15.588 -33.496,17.322c-0.477,0.074 -0.963,0.071 -1.44,-0.008c-12.755,-2.116 -24.007,-1.383 -34.457,0.867l-0.861,0.1c-24.466,0.505 -52.143,-16.815 -81.581,-46.915c-11.161,0.934 -22.453,1.409 -33.855,1.409c-52.71,0 -103.063,-10.169 -149.132,-28.745c-1.811,-0.729 -2.951,-2.535 -2.832,-4.483c3.382,-55.307 2.67,-75.207 -1.017,-93.6c-7.201,-35.922 8.398,-98.596 28.3,-154.581c19.896,-55.966 44.039,-105.196 52.997,-114.551c16.956,-17.706 34.55,-32.563 37.762,-55.025c2.386,-16.689 3.565,-35.285 8.456,-50.324c3.24,-9.964 8.105,-18.416 15.622,-24.155c-0.294,-6.419 0.871,-9.966 -6.805,-17.492c-12.595,-12.349 -16.442,-20.648 -21.341,-26.465c-4.629,-5.495 -13.14,-11.251 -21.718,-16.873c-9.22,-6.043 -18.545,-11.905 -24.023,-16.962c-5.978,-5.52 -14.775,-21.397 -23.93,-42.398c-20.779,-47.664 -44.266,-121.971 -44.651,-155.745c-0.095,-8.375 -1.285,-18.145 -0.308,-27.008c1.121,-10.162 4.956,-19.168 14.942,-24.61c4.176,-2.275 10.808,-3.427 18.662,-3.388c16.804,0.083 39.55,5.292 53.152,12.39c43.004,22.44 104.317,65.346 155.273,148.956c10.715,-7.417 18.795,-12.231 33.808,-13.606Z"/>
            <path d="M392.564,977.153c3.424,-55.998 2.635,-76.146 -1.098,-94.768c-14.182,-70.746 62.478,-246.675 80.126,-265.103c17.653,-18.435 35.632,-34.135 38.976,-57.521c3.916,-27.391 4.398,-60.018 24.312,-72.906c-1.122,-9.448 1.566,-13.22 -8.353,-22.946c-12.436,-12.193 -16.211,-20.405 -21.048,-26.148c-9.699,-11.515 -35.457,-24.388 -46.132,-34.245c-19.17,-17.7 -66.58,-147.15 -67.123,-194.862c-0.187,-16.411 -4.796,-38.286 12.269,-47.584c12.262,-6.681 48.874,-0.702 67.544,9.04c43.22,22.553 105.122,66.037 155.988,151.427c13.162,-9.199 21.017,-15.035 39.807,-15.862c-1.418,-39.159 15.401,-92.675 39.777,-141.565c11.675,-23.417 29.066,-52.006 37.051,-74.611c6.948,-19.671 21.837,-23.141 29.979,-24.727c13.639,-2.657 21.452,18.56 17.237,28.729c-6.694,16.148 -9.424,70.219 -6.899,91.801c2.603,22.251 -12.467,45.342 -6.546,67.799c2.318,8.796 2.167,26.779 -3.963,64.778c46.828,30.201 99.183,70.794 103.447,108.709c16.135,15.757 21.295,35.854 34.366,53.419c11.507,15.462 22.392,31.624 30.071,48.179c9.821,7.126 14.128,15.288 18.142,27.124c16.307,70.583 -6.843,118.346 -63.011,141.938c-8.738,2.038 -12.147,4.453 -22.235,2.549c17.047,8.388 25.542,39.513 25.614,74.821c-18.45,39.978 -43.369,76.355 -73.394,107.817c-0.022,0.022 -0.065,0.068 -0.065,0.068l0.481,0.568c3.505,13.327 -0.222,21.191 3.187,26.328c12.003,18.085 8.569,45.137 -0.545,45.513c-8.561,0.354 -9.664,11.782 -11.441,18.38c-2.133,7.922 -14.755,9.053 -25.76,10.392c-4.881,0.594 0.081,9.055 -4.258,12.434c-13.249,10.576 -32.125,17.337 -59.224,18.521c1.633,6.364 -1.066,12.823 -7.229,19.356c-10.382,9.583 -20.753,14.562 -31.117,16.174c-13.384,-2.221 -25.19,-1.454 -36.154,0.906c-23.957,0.494 -50.861,-17.192 -79.745,-47.094l-0.03,0.014l-0.026,0.003c-11.71,1.039 -23.564,1.571 -35.542,1.571c-52.11,-0 -101.891,-10.053 -147.436,-28.416Z" style="fill:#fff;"/>
            <path d="M455.801,996.529c1.783,-9.987 4.706,-21.272 8.34,-33.403c-1.146,-9.721 2.214,-18.389 7.622,-26.578c5.985,-1.181 13.692,-6.931 22.319,-15.12c3.773,0.126 10.77,-1.21 23.094,-4.958c6.878,0.991 11.43,5.247 10.049,17.823c-4.193,4.631 -7.39,8.993 -8.919,15.367c0.535,6.334 3.361,10.347 10.54,9.949c13.598,-4.256 11.501,-11.891 22.624,-10.721c1.917,4.671 6.929,9.493 16.461,14.536c3.486,26.119 9.511,45.605 24.517,41.621c4.071,2.862 8.195,8.28 12.362,15.687c11.62,4.237 22.338,2.448 31.948,-6.742c7.844,4.439 14.666,5.806 20.67,4.716c9.757,6.589 18.309,8.653 25.828,6.844c7.8,-9.35 4.183,-11.216 0.725,-26.237c10.891,-27.973 14.689,-39.147 -0.057,-46.812c2.054,-19.679 0.281,-34.459 -12.151,-35.591c-10.758,-1.574 -20.826,-4.732 -30.222,-9.437c-10.084,-14.066 -21.979,-19.776 -36.862,-11.685c-7.006,-1.049 -15.582,-0.992 -25.413,-0.051c5.53,-10.967 6.288,-25.575 3.678,-40.833c0.606,-17.114 3.856,-28.349 11.718,-29.334c10.563,5.273 18.401,1.694 23.056,-12.226c5.549,-12.635 2.083,-18.382 -8.796,-22.944c3.895,-12.216 5.222,-25.748 5.315,-39.912c-10.488,-2.882 -16.575,-7.893 -16.23,-16.014c-0.099,-9.547 5.97,-15.145 21.045,-14.974c5.968,-5.061 16.789,-7.327 31.355,-7.435c11.562,-12.781 13.555,-10.734 32.682,-16.146c12.013,-11.409 15.095,-17.898 26.8,-15.253c12.151,-10.374 15.603,-10.773 29.838,-12.324c2.561,-10.249 7.537,-18.382 15.852,-20.731c1.462,-6.293 6.298,-11.784 14.429,-16.49c4.839,-0.635 9.6,-4.698 14.326,-10.257c-1.459,-6.22 1.535,-10.065 7.785,-12.174c4.226,1.494 6.249,3.877 3.652,8.125l-1.707,14.406c1.422,12.513 7.474,13.963 16.911,7.323c10.932,-13.356 21.011,-27.664 30.073,-43.11c6.404,-9.295 4.002,-14.845 -5.871,-17.219c-7.783,1.098 -11.375,-1.246 -10.575,-7.196c3.087,-6.001 3.479,-12.526 2.731,-19.274c6.422,-5.04 7.802,-11.494 6.891,-18.589c-9.913,-7.88 -10.873,-14.73 -3.681,-20.644l30.894,-0.182c20.175,0.951 39.285,8.617 55.958,31.68c1,13.441 5.532,22.472 16.78,23.122c14.667,0.847 18.901,3.955 21.658,14.91c13.18,52.368 -18.601,80.647 -53.834,106.544c-17.564,7.892 -33.655,9.399 -33.354,9.45c19.05,15.489 20.673,72.443 14.317,110.767c-15.609,26.698 -34.281,51.393 -55.504,73.632c-0.022,0.022 -0.065,0.068 -0.065,0.068l0.481,0.568c3.505,13.327 -0.222,21.191 3.187,26.328c12.003,18.085 8.569,45.137 -0.545,45.513c-8.561,0.354 -9.664,11.782 -11.441,18.38c-2.133,7.922 -14.755,9.053 -25.76,10.392c-4.881,0.594 0.081,9.055 -4.258,12.434c-13.249,10.576 -32.125,17.337 -59.224,18.521c1.633,6.364 -1.066,12.823 -7.229,19.356c-10.382,9.583 -20.753,14.562 -31.117,16.174c-13.384,-2.221 -25.19,-1.454 -36.154,0.906c-23.957,0.494 -50.861,-17.192 -79.745,-47.094l-0.03,0.014l-0.026,0.003c-11.71,1.039 -23.564,1.571 -35.542,1.571c-28.884,-0 -57.053,-3.089 -84.199,-9.04Zm279.432,-136.691c12.306,1.983 23.631,-1.4 34.218,-8.813c30.872,1.239 48.095,14.761 55.648,36.986c-6.623,29.295 -20.665,50.408 -45.552,59.562c-3.118,3.632 -2.831,6.647 0.277,9.151c3.844,14.51 -5.992,23.671 -23.291,29.915c-24.453,4.754 -36.188,-5.311 -41.134,-23.286c-2.951,-11.196 -7.424,-19.927 -13.187,-26.567c-5.078,-52 4.569,-65.211 33.021,-76.948Zm135.879,-258.225c-0.67,-1.689 0.141,-7.43 1.651,-9.848c5.734,-3.689 9.97,-8.804 12.825,-15.23c13.728,-3.242 29.022,-3.023 41.273,-1.087l-0.295,4.826l-55.454,21.339Zm-479.065,-398.321c4.476,-7.262 10.735,-13.649 19.345,-18.886l172.436,120.067c14.155,20.371 19.991,29.093 10.333,47.46c-2.116,17.462 -10.881,32.721 -27.211,45.476c-14.204,21.903 -12.251,38.406 7.241,49.047c6.384,15.065 14.823,24.519 26.844,24.193c10.419,4.05 19.855,10.238 26.866,21.706l38.685,-0.597c13.85,-20.22 42.934,-21.418 74.785,-19.16c11.592,5.438 22.62,8.667 32.896,8.953c1.887,21.845 5.963,33.734 12.28,35.43c0.925,12.325 -1.676,20.552 -9.824,22.333c-0.061,-10.795 -3.384,-14.825 -8.67,-14.788c-2.848,6.633 -2.556,12.638 0.595,18.069c-3.277,7.834 -9.218,11.718 -17.365,12.332l-75.913,-35.13c-9.44,-0.51 -19.165,-3.217 -29.305,-9.132c-14.822,2.645 -27.561,-0.148 -37.528,-10.179c-14.002,-3.118 -27.037,-4.65 -37.237,-1.528c-16.389,-15.164 -28.54,-20.301 -35.247,-12.559l-1.303,-0.793c-0.774,-8.552 1.248,-12.411 -8.223,-21.697c-12.436,-12.193 -16.211,-20.405 -21.048,-26.148c-9.699,-11.515 -35.457,-24.388 -46.132,-34.245c-19.17,-17.7 -66.58,-147.15 -67.123,-194.862c-0.02,-1.733 -0.089,-3.527 -0.177,-5.362Zm400.625,-112.491c-0.186,0.961 -0.451,1.868 -0.796,2.7c-6.694,16.148 -9.424,70.219 -6.899,91.801c2.603,22.251 -12.467,45.342 -6.546,67.799c2.318,8.796 2.167,26.779 -3.963,64.778c1.578,1.018 3.162,2.048 4.747,3.087c-6.06,-1.474 -11.925,-2.552 -15.837,-3c-23.12,-33.788 -17.783,-80.118 -2.867,-131.674l18.423,-77.637c5.646,-17.266 8.185,-17.196 13.738,-17.854Z" style="fill:#ededed;"/>
            <path d="M872.964,595.732c10.302,-10.121 49.011,-24.881 54.452,-19.943c3.871,3.513 1.908,30.201 -12.67,37.633c-10.815,5.513 -26.291,9.328 -32.948,6.215c-6.656,-3.112 -15.761,-17.101 -8.834,-23.905Zm-280.566,-248.495c-2.05,-41.034 -21.956,-73.509 -54.784,-101.532c-57.387,-56.573 -98.115,-73.883 -126.661,-62.484c-15.622,25.125 5.35,127.576 49.84,207.919c9.617,17.368 25.182,19.336 42.066,35.146c7.22,6.761 10.175,11.19 32.516,36.748c-1.976,-44.741 33.013,-96.313 57.023,-115.797Zm189.12,-245.933c-6.066,20.978 -11.853,66.545 -6.99,85.356c5.486,21.221 -13.443,44.924 -7.523,67.381c2.294,8.702 9.726,17.802 -1.177,64.36c-0.559,0.396 -29.271,-8.219 -30.145,-19.772c-3.358,-44.384 10.019,-103.483 45.731,-198.387l0.104,1.062Z" style="fill:#fcc;"/>
            <path d="M906.6,618.259c1.943,15.901 1.872,18.97 0.898,34.293c3.043,7.097 10.4,9.932 15.986,13.433l-18.706,-2.775c-8.691,10.395 -52.985,46.934 -92.333,49.721c47.91,-6.106 90.274,-52.473 91.519,-60.008c-0,-0 2.182,-13.709 2.636,-34.664Zm-30.357,-17.865c11.255,-2.685 30.142,8.853 28.956,11.132c-1.371,2.634 -17.247,4.601 -22.165,2.708c-4.795,-1.847 -9.588,-13.173 -6.791,-13.84Zm39.415,7.571c1.841,-2.378 7.532,-15.129 7.965,-15.074c2.118,0.268 0.195,8.207 -1.604,9.968c-3.43,3.358 -7.132,6.101 -6.361,5.106Zm-220.149,-122.817c8.636,-1.842 17.75,-0.854 24.487,-0.456c11.12,5.603 28.664,21.949 30.071,32.512c0.643,4.832 2.151,13.057 6.169,20.165c2.988,5.287 1.908,13.696 -6.78,17.88c-19.55,1.105 -39.144,2.248 -53.147,-1.519c-12.203,-13.141 -17.654,-25.919 -18.929,-38.471c-1.154,-15.748 5.024,-24.212 18.129,-30.111Zm-3.211,21.399c1.473,-2.724 4.379,-5.224 8.591,-7.519l10.795,-1.424l9.166,0.154l5.57,6.848l-5.278,16.787l-14.878,4.241l-11.112,-6.319l-2.569,-8.41l-0.285,-4.358Z" style="fill:#9f8585;"/>
            <path d="M702.181,542.2c-14.122,-12.929 -15.206,-20.294 -13.302,-34.27c10.031,-11.53 16.692,-14.531 37.249,-12.812c8.067,6.917 13.189,14.662 16.839,22.542c1.311,7.477 1.464,14.646 0.006,21.386c-2.371,5.337 -8.693,8.566 -18.291,10.047l-19.894,-0.218c-9.027,-3.368 -10.394,-6.229 -11.778,-10.995c3.482,2.336 5.534,3.39 9.171,4.32Zm-1.92,-24.929c-2.3,0.649 6.224,-13.818 11.812,-11.771c5.736,2.101 7.013,14.087 4.235,14.16c-8.055,0.213 -3.767,-5.856 -16.047,-2.389Zm-4.519,-13.168c4.021,-3.49 6.965,-4.362 11.583,-4.216c-3.245,2.281 -5.616,4.964 -5.51,10.389c-5.188,0.065 -7.049,-1.903 -6.073,-6.173Zm19.173,1.17c1.918,0.697 3.98,1.258 5.387,0.819c0.719,-2.115 -0.17,-3.863 -0.936,-5.308c-1.359,2.391 -2.551,3.648 -4.451,4.489Z"/>
        </g>
    </g>
</svg>
