<?xml version="1.0" encoding="UTF-8" standalone="no"?>
<!DOCTYPE svg PUBLIC "-//W3C//DTD SVG 1.1//EN" "http://www.w3.org/Graphics/SVG/1.1/DTD/svg11.dtd">
<svg width="100%" height="100%" viewBox="0 0 256 128" version="1.1" xmlns="http://www.w3.org/2000/svg" xmlns:xlink="http://www.w3.org/1999/xlink" xml:space="preserve" xmlns:serif="http://www.serif.com/" style="fill-rule:evenodd;clip-rule:evenodd;stroke-linejoin:round;stroke-miterlimit:2;">
    <g id="git">
        <path d="M254.792,93.174l-27.942,-27.942c-1.609,-1.609 -4.219,-1.609 -5.829,0l-5.802,5.804l7.36,7.36c1.71,-0.579 3.672,-0.191 5.035,1.173c1.371,1.372 1.756,3.35 1.163,5.067l7.094,7.094c1.717,-0.592 3.697,-0.209 5.067,1.164c1.916,1.915 1.916,5.019 0,6.935c-1.916,1.917 -5.02,1.917 -6.937,0c-1.441,-1.441 -1.797,-3.559 -1.067,-5.333l-6.616,-6.616l0,17.41c0.466,0.231 0.907,0.539 1.296,0.928c1.915,1.915 1.915,5.019 0,6.936c-1.916,1.915 -5.021,1.915 -6.935,0c-1.916,-1.918 -1.916,-5.022 0,-6.936c0.473,-0.473 1.022,-0.831 1.607,-1.071l0,-17.572c-0.585,-0.24 -1.132,-0.594 -1.607,-1.071c-1.451,-1.45 -1.8,-3.58 -1.056,-5.362l-7.255,-7.256l-19.161,19.158c-1.61,1.611 -1.61,4.221 0,5.831l27.944,27.942c1.609,1.609 4.218,1.609 5.829,0l27.812,-27.813c1.61,-1.609 1.61,-4.221 0,-5.83Z" style="fill:#f05133;fill-rule:nonzero;"/>
    </g>
    <g id="worker">
        <path d="M208.454,3.97l7.54,13.604l-6.924,12.464c-0.673,1.209 -0.673,2.684 0,3.893l6.924,12.495l-7.54,13.604c-1.418,-0.704 -2.597,-1.812 -3.385,-3.186l-12.003,-20.851c-1.421,-2.474 -1.421,-5.527 0,-8.002l12.003,-20.851c0.791,-1.367 1.969,-2.47 3.385,-3.17Z" style="fill:url(#_Linear1);fill-rule:nonzero;"/>
        <path d="M209.07,30.053c-0.668,1.205 -0.668,2.673 0,3.878l6.924,12.495l-7.54,13.604c-1.418,-0.704 -2.597,-1.812 -3.385,-3.186l-12.003,-20.851c-0.954,-1.646 4.386,-3.616 16.004,-5.924l0,-0.016Z" style="fill:url(#_Linear2);fill-rule:nonzero;"/>
        <path d="M209.224,5.34l6.77,12.234l-1.123,1.954l-5.971,-10.11c-1.723,-2.816 -4.354,-1.354 -7.647,4.339l0.492,-0.846l3.324,-5.771c0.782,-1.363 1.949,-2.465 3.354,-3.17l0.785,1.37l0.016,0Z" style="fill:url(#_Linear3);fill-rule:nonzero;"/>
        <path d="M242.924,7.14l12.003,20.851c1.431,2.462 1.431,5.54 0,8.002l-12.003,20.851c-1.427,2.471 -4.071,3.999 -6.925,4.001l-12.003,0l14.927,-26.914c0.667,-1.205 0.667,-2.673 0,-3.878l-14.927,-26.914l12.003,0c2.854,0.002 5.498,1.53 6.925,4.001Z" style="fill:url(#_Linear4);fill-rule:nonzero;"/>
        <path d="M235.384,60.753l-11.849,0.108l14.342,-27.053c0.65,-1.22 0.65,-2.688 -0,-3.908l-14.342,-26.761l2.708,0l15.05,26.637c0.724,1.279 0.719,2.851 -0.016,4.124c-3.239,5.63 -6.455,11.272 -9.648,16.927c-2.924,5.14 -1.662,8.449 3.755,9.926Z" style="fill:url(#_Linear5);fill-rule:nonzero;"/>
        <path d="M211.994,60.845c-1.232,0 -2.463,-0.292 -3.54,-0.815l14.804,-26.699c0.461,-0.831 0.461,-1.847 0,-2.677l-14.804,-26.684c1.101,-0.545 2.312,-0.829 3.54,-0.831l12.002,0l14.927,26.914c0.667,1.205 0.667,2.673 0,3.878l-14.927,26.914l-12.002,0Z" style="fill:url(#_Linear6);fill-rule:nonzero;"/>
        <path d="M237.877,30.654l-15.266,-27.515l1.385,0l14.927,26.914c0.667,1.205 0.667,2.673 0,3.878l-14.927,26.914l-1.385,0l15.266,-27.514c0.461,-0.831 0.461,-1.847 0,-2.677Z" style="fill:url(#_Linear7);fill-rule:nonzero;"/>
        <path d="M223.258,30.654l-14.804,-26.684c0.462,-0.246 1.016,-0.431 1.539,-0.584c3.262,5.863 8.079,14.757 14.465,26.667c0.668,1.205 0.668,2.673 0,3.878l-14.696,26.606c-0.523,-0.153 -0.8,-0.261 -1.292,-0.492l14.772,-26.699c0.462,-0.83 0.462,-1.846 0,-2.677l0.016,-0.015Z" style="fill:url(#_Linear8);fill-rule:nonzero;"/>
    </g>
    <g id="page">
        <path d="M170.226,7.325l14.464,0l2.058,2.057l0,45.266l-2.058,2.058l-19.711,0l0.998,-1.543l18.076,0l1.152,-1.153l0,-43.99l-1.152,-1.152l-12.469,0l-1.471,7.603l-1.574,0l1.409,-7.675l0.288,-1.471l-0.01,0Zm-34.917,49.381l-2.057,-2.058l0,-45.266l2.057,-2.057l20.473,0l-1.029,1.543l-18.806,0l-1.152,1.152l0,43.99l1.152,1.153l14.897,0l-0.247,1.543l-15.288,0Zm3.087,-5.144l8.744,0l-0.308,1.543l-9.465,0l-0.514,-0.514l0,-9.259l1.543,3.086l0,5.144Zm34.978,0l1.543,1.543l-7.716,0l1.029,-1.543l5.144,0Z" style="fill:#b7bbbd;fill-rule:nonzero;"/>
        <path d="M156.574,38.188l-14.063,0l-1.708,-3.21l23.662,-34.978l3.724,1.543l-4.671,24.3l13.971,0l1.729,3.179l-22.634,34.978l-3.765,-1.44l3.755,-24.372Zm-17.664,-23.662c-0.846,0 -1.543,-0.696 -1.543,-1.543c-0,-0.846 0.697,-1.543 1.543,-1.543c0.847,0 1.543,0.697 1.543,1.543c-0,0.847 -0.696,1.543 -1.543,1.543Zm4.115,0c-0.846,0 -1.543,-0.696 -1.543,-1.543c-0,-0.846 0.697,-1.543 1.543,-1.543c0.847,0 1.543,0.697 1.543,1.543c-0,0.847 -0.696,1.543 -1.543,1.543Zm4.115,0c-0.846,0 -1.543,-0.696 -1.543,-1.543c-0,-0.846 0.697,-1.543 1.543,-1.543c0.847,0 1.543,0.697 1.543,1.543c-0,0.847 -0.696,1.543 -1.543,1.543Z" style="fill:url(#_Linear9);fill-rule:nonzero;"/>
    </g>
    <g id="pwa">
        <path d="M41.392,108.073l9.716,-24.097l-6.441,0l-6.646,15.572l-4.726,-15.572l-4.951,0l-5.074,15.572l-3.579,-7.096l-3.238,9.977l3.288,5.644l6.339,-0l4.585,-13.965l4.372,13.965l6.355,-0Z" style="fill:#5a0fc8;fill-rule:nonzero;"/>
        <path d="M47.102,103.757l1.849,-4.676l5.339,0l-2.534,-7.092l3.169,-8.013l9.075,24.097l-6.693,-0l-1.551,-4.316l-8.654,-0Zm-40.988,-3.956l3.967,-0c1.202,-0 2.272,-0.134 3.211,-0.403l1.026,-3.161l2.867,-8.834c-0.218,-0.346 -0.468,-0.674 -0.748,-0.982c-1.472,-1.63 -3.627,-2.445 -6.463,-2.445l-9.974,0l-0,24.097l6.114,-0l-0,-8.272Zm5.251,-10.281c0.575,0.579 0.863,1.353 0.863,2.324c-0,0.977 -0.253,1.753 -0.759,2.326c-0.554,0.637 -1.575,0.955 -3.062,0.955l-2.293,0l-0,-6.473l2.31,-0c1.386,-0 2.366,0.289 2.941,0.868Z" style="fill:#3d3d3d;fill-rule:nonzero;"/>
    </g>
    <g id="cloudflare">
        <path d="M107.577,42.155c0.289,0.157 0.616,0.253 0.964,0.268c0.03,0.002 0.06,0.002 0.09,0.002l16.506,0c1.085,0.005 2.053,-0.726 2.349,-1.778c0.001,-0.002 0.001,-0.004 0.002,-0.005c0.342,-1.229 0.514,-2.499 0.512,-3.774c-0.001,-7.711 -6.194,-13.95 -13.824,-13.95l-0.229,0.002c-1.922,-6.877 -8.187,-11.92 -15.613,-11.92c-6.313,0 -11.782,3.638 -14.463,8.957c-1.173,-0.425 -2.437,-0.584 -3.7,-0.452c-3.93,0.398 -7.102,3.592 -7.494,7.566c-0.025,0.245 -0.039,0.489 -0.043,0.734c-4.939,1.132 -8.634,5.584 -8.634,10.915c0,0.546 0.039,1.084 0.117,1.609c0.165,1.191 1.196,2.089 2.401,2.087c-0.003,0 39.953,0 39.953,0l0.033,0c0.381,-0.006 0.746,-0.099 1.073,-0.261Z" style="fill:#fff;"/>
        <path d="M113.571,24.924c-0.032,0.002 -0.064,0.01 -0.093,0.022c-0.107,0.037 -0.188,0.125 -0.216,0.234l-0.85,2.97c-0.367,1.277 -0.231,2.457 0.385,3.322c0.565,0.801 1.505,1.271 2.646,1.326l4.613,0.28c0.137,0.007 0.256,0.073 0.328,0.182c0.076,0.117 0.094,0.264 0.046,0.396c-0.075,0.217 -0.271,0.369 -0.5,0.39l-4.792,0.28c-2.604,0.12 -5.405,2.245 -6.388,4.836l-0.346,0.914c-0.011,0.03 -0.017,0.062 -0.017,0.094c0,0.136 0.108,0.249 0.244,0.255l16.506,0c0.197,0.001 0.371,-0.13 0.424,-0.32c0.293,-1.053 0.441,-2.142 0.439,-3.236c0,-6.601 -5.293,-11.951 -11.824,-11.951" style="fill:#fbad41;fill-rule:nonzero;"/>
        <path d="M106.965,40.041l0.305,-1.074c0.367,-1.277 0.231,-2.456 -0.384,-3.322c-0.567,-0.801 -1.506,-1.271 -2.648,-1.326l-21.635,-0.28c-0.137,-0.002 -0.264,-0.07 -0.342,-0.181c-0.077,-0.118 -0.095,-0.265 -0.048,-0.397c0.077,-0.218 0.275,-0.371 0.505,-0.39l21.837,-0.279c2.593,-0.12 5.395,-2.246 6.377,-4.837l1.246,-3.291c0.05,-0.14 0.063,-0.29 0.036,-0.436c-1.419,-6.42 -7.094,-11.228 -13.88,-11.228c-6.255,-0 -11.562,4.079 -13.467,9.75c-1.281,-0.974 -2.888,-1.424 -4.49,-1.256c-2.998,0.302 -5.412,2.745 -5.71,5.776c-0.077,0.758 -0.021,1.522 0.165,2.26c-4.901,0.147 -8.832,4.204 -8.832,9.19c0,0.451 0.032,0.895 0.097,1.329c0.027,0.209 0.207,0.368 0.418,0.367l39.956,-0c0.23,-0.003 0.432,-0.16 0.494,-0.382" style="fill:#f6821f;fill-rule:nonzero;"/>
    </g>
    <g id="npm">
        <path d="M64,83.184l64,-0l0,21.333l-32,0l0,3.556l-14.222,-0l-0,-3.556l-17.778,0l0,-21.333Zm3.556,17.777l7.111,0l-0,-10.666l3.555,-0l0,10.666l3.556,0l-0,-14.222l-14.222,0l-0,14.222Zm17.777,-14.222l0,17.778l7.111,0l0,-3.556l7.112,0l-0,-14.222l-14.223,0Zm7.111,3.556l3.556,-0l-0,7.111l-3.556,-0l0,-7.111Zm10.667,-3.556l0,14.222l7.111,0l0,-10.666l3.556,-0l-0,10.666l3.555,0l0,-10.666l3.556,-0l-0,10.666l3.555,0l0,-14.222l-21.333,0Z" style="fill:#cb3837;fill-rule:nonzero;"/>
        <path d="M85.333,86.739l0,17.778l7.111,0l0,-3.556l7.112,0l-0,-14.222l-14.223,0Zm-17.777,14.222l7.111,0l-0,-10.666l3.555,-0l0,10.666l3.556,0l-0,-14.222l-14.222,0l-0,14.222Zm35.555,-14.222l0,14.222l7.111,0l0,-10.666l3.556,-0l-0,10.666l3.555,0l0,-10.666l3.556,-0l-0,10.666l3.555,0l0,-14.222l-21.333,0Zm-7.111,10.667l-3.556,-0l0,-7.111l3.556,-0l-0,7.111Z" style="fill:#fff;fill-rule:nonzero;"/>
    </g>
    <g id="github">
        <path d="M160,64c-17.68,0 -32,14.32 -32,32c0,14.16 9.16,26.12 21.88,30.36c1.6,0.28 2.2,-0.68 2.2,-1.52c0,-0.76 -0.04,-3.28 -0.04,-5.96c-8.04,1.48 -10.12,-1.96 -10.76,-3.76c-0.36,-0.92 -1.92,-3.76 -3.28,-4.52c-1.12,-0.6 -2.72,-2.08 -0.04,-2.12c2.52,-0.04 4.32,2.32 4.92,3.28c2.88,4.84 7.48,3.48 9.32,2.64c0.28,-2.08 1.12,-3.48 2.04,-4.28c-7.12,-0.8 -14.56,-3.56 -14.56,-15.8c0,-3.48 1.24,-6.36 3.28,-8.6c-0.32,-0.8 -1.44,-4.08 0.32,-8.48c0,-0 2.68,-0.84 8.8,3.28c2.56,-0.72 5.28,-1.08 8,-1.08c2.72,-0 5.44,0.36 8,1.08c6.12,-4.16 8.8,-3.28 8.8,-3.28c1.76,4.4 0.64,7.68 0.32,8.48c2.04,2.24 3.28,5.08 3.28,8.6c0,12.28 -7.48,15 -14.6,15.8c1.16,1 2.16,2.92 2.16,5.92c0,4.28 -0.04,7.72 -0.04,8.8c0,0.84 0.6,1.84 2.2,1.52c12.993,-4.386 21.796,-16.647 21.8,-30.36c0,-17.68 -14.32,-32 -32,-32Z" style="fill:#fff;"/>
    </g>
    <g id="lapine">
        <circle cx="32" cy="35.084" r="28.916" style="fill:#180025;"/>
        <circle cx="32" cy="35.084" r="25.401" style="fill:#7289da;"/>
        <path d="M39.886,15.452c-0.007,-2.516 1.055,-5.858 2.581,-8.919c0.742,-1.488 1.85,-3.305 2.358,-4.742c0.496,-1.405 1.555,-1.657 2.136,-1.771c0.466,-0.09 0.86,0.129 1.133,0.5c0.366,0.497 0.487,1.269 0.294,1.735c-0.418,1.008 -0.579,4.384 -0.421,5.731c0.087,0.744 -0.114,1.504 -0.295,2.265c-0.162,0.68 -0.309,1.361 -0.132,2.033c0.149,0.565 0.156,1.705 -0.218,4.079c1.774,1.153 3.647,2.532 4.935,3.964c0.89,0.989 1.501,2.009 1.645,2.999c0.988,1.008 1.331,2.271 2.157,3.381c0.733,0.985 1.426,2.014 1.923,3.067c0.639,0.484 0.934,1.036 1.205,1.833l0.008,0.027c0.538,2.333 0.416,4.288 -0.296,5.856c-0.718,1.581 -2.035,2.775 -3.908,3.562c-0.015,0.006 -0.03,0.011 -0.046,0.015c-0.279,0.065 -0.48,0.133 -0.684,0.175c0.194,0.235 0.364,0.524 0.508,0.856c0.406,0.937 0.614,2.237 0.616,3.637c0.001,0.042 -0.009,0.084 -0.026,0.122c-1.169,2.533 -2.739,4.843 -4.628,6.849c0.095,0.411 0.092,0.743 0.088,1.014c-0.003,0.203 -0.029,0.359 0.051,0.481c0.594,0.894 0.645,2.101 0.406,2.752c-0.143,0.391 -0.4,0.6 -0.67,0.611c-0.151,0.007 -0.218,0.13 -0.274,0.261c-0.095,0.227 -0.136,0.501 -0.19,0.701c-0.078,0.287 -0.293,0.49 -0.605,0.621c-0.322,0.135 -0.761,0.193 -1.18,0.244c0.002,0.081 0.002,0.206 -0.005,0.287c-0.017,0.182 -0.083,0.346 -0.231,0.46c-0.835,0.667 -2.002,1.116 -3.651,1.231c-0.012,0.385 -0.204,0.777 -0.572,1.166l-0.014,0.014c-0.714,0.66 -1.43,0.998 -2.144,1.109c-0.03,0.004 -0.061,0.004 -0.092,-0.001c-0.816,-0.135 -1.536,-0.088 -2.205,0.056l-0.055,0.006c-1.566,0.032 -3.337,-1.076 -5.221,-3.003c-0.715,0.06 -1.437,0.091 -2.167,0.091c-3.373,0 -6.596,-0.651 -9.544,-1.84c-0.116,-0.047 -0.189,-0.162 -0.182,-0.287c0.217,-3.54 0.171,-4.813 -0.065,-5.99c-0.461,-2.299 0.538,-6.31 1.811,-9.894c1.274,-3.581 2.819,-6.732 3.392,-7.331c1.085,-1.133 2.211,-2.084 2.417,-3.521c0.153,-1.068 0.228,-2.259 0.541,-3.221c0.208,-0.638 0.519,-1.179 1,-1.546c-0.019,-0.411 0.056,-0.638 -0.436,-1.12c-0.806,-0.79 -1.052,-1.321 -1.365,-1.693c-0.297,-0.352 -0.841,-0.72 -1.39,-1.08c-0.59,-0.387 -1.187,-0.762 -1.538,-1.086c-0.382,-0.353 -0.945,-1.369 -1.531,-2.713c-1.33,-3.051 -2.833,-7.806 -2.858,-9.968c-0.006,-0.536 -0.082,-1.161 -0.02,-1.728c0.072,-0.651 0.318,-1.227 0.957,-1.575c0.267,-0.146 0.691,-0.22 1.194,-0.217c1.075,0.005 2.531,0.338 3.402,0.793c2.752,1.436 6.676,4.182 9.937,9.533c0.686,-0.475 1.203,-0.783 2.164,-0.871Z"/>
        <path d="M22.564,58.698c0.219,-3.584 0.169,-4.874 -0.07,-6.065c-0.908,-4.528 3.998,-15.788 5.128,-16.967c1.13,-1.18 2.28,-2.185 2.494,-3.681c0.251,-1.753 0.282,-3.841 1.556,-4.666c-0.071,-0.605 0.101,-0.846 -0.534,-1.469c-0.796,-0.78 -1.038,-1.306 -1.347,-1.673c-0.621,-0.737 -2.27,-1.561 -2.953,-2.192c-1.227,-1.133 -4.261,-9.418 -4.296,-12.471c-0.012,-1.05 -0.307,-2.45 0.786,-3.046c0.784,-0.427 3.127,-0.044 4.322,0.579c2.766,1.443 6.728,4.226 9.984,9.691c0.842,-0.588 1.345,-0.962 2.547,-1.015c-0.091,-2.506 0.986,-5.931 2.546,-9.06c0.747,-1.499 1.86,-3.328 2.371,-4.775c0.445,-1.259 1.398,-1.481 1.919,-1.583c0.873,-0.17 1.373,1.188 1.103,1.839c-0.428,1.034 -0.603,4.494 -0.441,5.875c0.166,1.424 -0.798,2.902 -0.419,4.339c0.148,0.563 0.138,1.714 -0.254,4.146c2.997,1.933 6.348,4.531 6.621,6.958c1.032,1.008 1.362,2.294 2.199,3.418c0.736,0.99 1.433,2.024 1.925,3.084c0.628,0.456 0.904,0.978 1.161,1.736c1.043,4.517 -0.438,7.574 -4.033,9.084c-0.559,0.13 -0.777,0.285 -1.423,0.163c1.091,0.537 1.635,2.529 1.639,4.789c-1.181,2.558 -2.775,4.886 -4.697,6.9c-0.001,0.001 -0.004,0.004 -0.004,0.004l0.031,0.037c0.224,0.852 -0.015,1.356 0.204,1.685c0.768,1.157 0.548,2.888 -0.035,2.912c-0.548,0.023 -0.619,0.754 -0.733,1.177c-0.136,0.507 -0.944,0.579 -1.648,0.665c-0.313,0.038 0.005,0.579 -0.273,0.796c-0.848,0.676 -2.056,1.109 -3.79,1.185c0.104,0.407 -0.068,0.821 -0.463,1.239c-0.664,0.613 -1.328,0.932 -1.991,1.035c-0.857,-0.142 -1.612,-0.093 -2.314,0.058c-1.533,0.031 -3.255,-1.1 -5.104,-3.014l-0.002,0.001l-0.001,0c-0.75,0.066 -1.508,0.1 -2.275,0.1c-3.335,0 -6.521,-0.643 -9.436,-1.818Z" style="fill:#fff;"/>
        <path d="M26.611,59.938c0.114,-0.639 0.301,-1.362 0.534,-2.138c-0.073,-0.622 0.142,-1.177 0.488,-1.701c0.383,-0.076 0.876,-0.444 1.428,-0.968c0.242,0.008 0.69,-0.077 1.478,-0.317c0.44,0.064 0.732,0.336 0.643,1.141c-0.268,0.296 -0.473,0.575 -0.57,0.983c0.034,0.406 0.215,0.662 0.674,0.637c0.87,-0.272 0.736,-0.761 1.448,-0.686c0.123,0.299 0.444,0.607 1.054,0.93c0.223,1.672 0.608,2.919 1.569,2.664c0.26,0.183 0.524,0.53 0.791,1.004c0.744,0.271 1.429,0.157 2.045,-0.432c0.502,0.284 0.938,0.372 1.322,0.302c0.625,0.422 1.172,0.554 1.653,0.438c0.5,-0.598 0.268,-0.718 0.047,-1.679c0.697,-1.79 0.94,-2.505 -0.004,-2.996c0.132,-1.259 0.018,-2.205 -0.778,-2.278c-0.688,-0.1 -1.332,-0.303 -1.934,-0.604c-0.645,-0.9 -1.406,-1.265 -2.359,-0.748c-0.448,-0.067 -0.997,-0.063 -1.626,-0.003c0.354,-0.702 0.402,-1.637 0.235,-2.613c0.039,-1.095 0.247,-1.814 0.75,-1.878c0.676,0.338 1.178,0.109 1.476,-0.782c0.355,-0.809 0.133,-1.176 -0.563,-1.468c0.249,-0.782 0.334,-1.648 0.34,-2.555c-0.671,-0.184 -1.061,-0.505 -1.039,-1.025c-0.006,-0.611 0.382,-0.969 1.347,-0.958c0.382,-0.324 1.074,-0.469 2.007,-0.476c0.74,-0.818 0.867,-0.687 2.091,-1.033c0.769,-0.73 0.966,-1.146 1.716,-0.976c0.777,-0.664 0.998,-0.69 1.909,-0.789c0.164,-0.656 0.483,-1.177 1.015,-1.327c0.093,-0.403 0.403,-0.754 0.923,-1.055c0.31,-0.041 0.615,-0.301 0.917,-0.657c-0.093,-0.398 0.098,-0.644 0.498,-0.779c0.271,0.096 0.4,0.248 0.234,0.52l-0.109,0.922c0.091,0.801 0.478,0.894 1.082,0.469c0.7,-0.855 1.345,-1.771 1.925,-2.759c0.41,-0.595 0.256,-0.95 -0.376,-1.102c-0.498,0.07 -0.728,-0.08 -0.677,-0.461c0.198,-0.384 0.223,-0.801 0.175,-1.233c0.411,-0.323 0.499,-0.736 0.441,-1.19c-0.634,-0.504 -0.696,-0.943 -0.236,-1.321l1.978,-0.012c1.291,0.061 2.514,0.552 3.581,2.028c0.064,0.86 0.354,1.438 1.074,1.479c0.939,0.055 1.21,0.254 1.386,0.955c0.843,3.351 -1.191,5.161 -3.445,6.818c-1.125,0.506 -2.154,0.602 -2.135,0.605c1.219,0.992 1.323,4.637 0.916,7.089c-0.999,1.709 -2.194,3.29 -3.552,4.713c-0.001,0.001 -0.004,0.004 -0.004,0.004l0.031,0.037c0.224,0.852 -0.015,1.356 0.204,1.685c0.768,1.157 0.548,2.888 -0.035,2.912c-0.548,0.023 -0.619,0.754 -0.733,1.177c-0.136,0.507 -0.944,0.579 -1.648,0.665c-0.313,0.038 0.005,0.579 -0.273,0.796c-0.848,0.676 -2.056,1.109 -3.79,1.185c0.104,0.407 -0.068,0.821 -0.463,1.239c-0.664,0.613 -1.328,0.932 -1.991,1.035c-0.857,-0.142 -1.612,-0.093 -2.314,0.058c-1.533,0.031 -3.255,-1.1 -5.104,-3.014l-0.002,0.001l-0.001,0c-0.75,0.066 -1.508,0.1 -2.275,0.1c-1.849,0 -3.651,-0.197 -5.389,-0.578Zm17.884,-8.748c0.788,0.127 1.512,-0.09 2.19,-0.564c1.976,0.079 3.078,0.944 3.561,2.367c-0.424,1.875 -1.322,3.226 -2.915,3.812c-0.2,0.232 -0.181,0.425 0.018,0.585c0.246,0.929 -0.384,1.515 -1.491,1.915c-1.565,0.304 -2.316,-0.34 -2.632,-1.49c-0.189,-0.717 -0.476,-1.276 -0.844,-1.701c-0.325,-3.328 0.292,-4.173 2.113,-4.924Zm8.696,-16.527c-0.043,-0.108 0.009,-0.475 0.106,-0.63c0.367,-0.236 0.638,-0.564 0.821,-0.975c0.878,-0.207 1.857,-0.193 2.641,-0.069l-0.019,0.309l-3.549,1.365Zm-30.66,-25.492c0.286,-0.465 0.687,-0.874 1.238,-1.209l11.036,7.684c0.906,1.304 1.279,1.862 0.661,3.038c-0.135,1.117 -0.696,2.094 -1.741,2.91c-0.909,1.402 -0.784,2.458 0.463,3.139c0.409,0.964 0.949,1.569 1.718,1.549c0.667,0.259 1.271,0.655 1.72,1.389l2.476,-0.038c0.886,-1.295 2.747,-1.371 4.786,-1.227c0.742,0.348 1.447,0.555 2.105,0.573c0.121,1.398 0.382,2.159 0.786,2.268c0.059,0.789 -0.107,1.315 -0.629,1.429c-0.004,-0.691 -0.216,-0.949 -0.555,-0.946c-0.182,0.424 -0.163,0.808 0.038,1.156c-0.209,0.501 -0.589,0.75 -1.111,0.789l-4.858,-2.248c-0.604,-0.033 -1.227,-0.206 -1.876,-0.584c-0.948,0.169 -1.764,-0.01 -2.402,-0.652c-0.896,-0.199 -1.73,-0.298 -2.383,-0.098c-1.049,-0.97 -1.826,-1.299 -2.256,-0.803l-0.083,-0.051c-0.05,-0.548 0.08,-0.795 -0.526,-1.389c-0.796,-0.78 -1.038,-1.306 -1.347,-1.673c-0.621,-0.737 -2.27,-1.561 -2.953,-2.192c-1.227,-1.133 -4.261,-9.418 -4.296,-12.471c-0.001,-0.111 -0.005,-0.226 -0.011,-0.343Zm25.64,-7.2c-0.012,0.062 -0.029,0.12 -0.051,0.173c-0.428,1.034 -0.603,4.494 -0.441,5.875c0.166,1.424 -0.798,2.902 -0.419,4.339c0.148,0.563 0.138,1.714 -0.254,4.146c0.101,0.065 0.202,0.131 0.304,0.198c-0.388,-0.095 -0.763,-0.164 -1.014,-0.192c-1.479,-2.163 -1.138,-5.128 -0.183,-8.427l1.179,-4.969c0.361,-1.105 0.524,-1.101 0.879,-1.143Z" style="fill:#ededed;"/>
        <path d="M53.31,34.287c0.659,-0.648 3.136,-1.593 3.485,-1.277c0.247,0.225 0.122,1.933 -0.811,2.409c-0.692,0.353 -1.683,0.597 -2.109,0.398c-0.426,-0.199 -1.009,-1.095 -0.565,-1.53Zm-17.957,-15.904c-0.131,-2.626 -1.405,-4.704 -3.506,-6.498c-3.672,-3.621 -6.279,-4.728 -8.106,-3.999c-1,1.608 0.342,8.165 3.19,13.307c0.615,1.111 1.611,1.237 2.692,2.249c0.462,0.433 0.651,0.716 2.081,2.352c-0.126,-2.863 2.113,-6.164 3.649,-7.411Zm12.104,-15.74c-0.388,1.343 -0.758,4.259 -0.447,5.463c0.351,1.358 -0.861,2.875 -0.482,4.313c0.147,0.557 0.623,1.139 -0.075,4.119c-0.036,0.025 -1.873,-0.526 -1.929,-1.266c-0.215,-2.84 0.641,-6.623 2.927,-12.697l0.006,0.068Z" style="fill:#fcc;"/>
        <path d="M55.462,35.729c0.125,1.017 0.12,1.214 0.058,2.194c0.195,0.455 0.665,0.636 1.023,0.86l-1.197,-0.178c-0.556,0.666 -3.391,3.004 -5.91,3.183c3.067,-0.391 5.778,-3.359 5.858,-3.841c-0,0 0.139,-0.877 0.168,-2.218Zm-1.942,-1.144c0.72,-0.172 1.929,0.567 1.853,0.713c-0.088,0.168 -1.104,0.294 -1.419,0.173c-0.307,-0.118 -0.613,-0.843 -0.434,-0.886Zm2.522,0.485c0.118,-0.152 0.482,-0.969 0.51,-0.965c0.135,0.017 0.012,0.525 -0.103,0.638c-0.219,0.215 -0.456,0.39 -0.407,0.327Zm-14.089,-7.861c0.552,-0.117 1.136,-0.054 1.567,-0.029c0.711,0.359 1.834,1.405 1.924,2.081c0.041,0.309 0.138,0.836 0.395,1.291c0.191,0.338 0.122,0.876 -0.434,1.144c-1.251,0.071 -2.505,0.144 -3.401,-0.097c-0.781,-0.841 -1.13,-1.659 -1.212,-2.462c-0.074,-1.008 0.322,-1.55 1.161,-1.928Zm-0.206,1.37c0.094,-0.174 0.28,-0.334 0.55,-0.481l0.691,-0.091l0.586,0.01l0.357,0.438l-0.338,1.074l-0.952,0.272l-0.711,-0.405l-0.165,-0.538l-0.018,-0.279Z" style="fill:#9f8585;"/>
        <path d="M42.38,30.861c-0.904,-0.828 -0.974,-1.299 -0.852,-2.193c0.642,-0.738 1.069,-0.93 2.384,-0.82c0.516,0.442 0.844,0.938 1.078,1.442c0.084,0.479 0.094,0.938 0,1.369c-0.151,0.342 -0.556,0.548 -1.17,0.643l-1.274,-0.014c-0.577,-0.216 -0.665,-0.399 -0.753,-0.704c0.222,0.15 0.354,0.217 0.587,0.277Zm-0.123,-1.596c-0.147,0.042 0.398,-0.884 0.756,-0.753c0.367,0.134 0.449,0.902 0.271,0.906c-0.516,0.014 -0.241,-0.375 -1.027,-0.153Zm-0.29,-0.842c0.258,-0.224 0.446,-0.28 0.742,-0.27c-0.208,0.146 -0.36,0.317 -0.353,0.665c-0.332,0.004 -0.451,-0.122 -0.389,-0.395Zm1.228,0.074c0.122,0.045 0.254,0.081 0.344,0.053c0.046,-0.135 -0.011,-0.247 -0.06,-0.34c-0.087,0.153 -0.163,0.234 -0.284,0.287Z"/>
    </g>
    <defs>
        <linearGradient id="_Linear1" x1="0" y1="0" x2="1" y2="0" gradientUnits="userSpaceOnUse" gradientTransform="matrix(-5.83065,-51.1821,51.1821,-5.83065,203.997,60.0297)"><stop offset="0" style="stop-color:#eb6f07;stop-opacity:1"/><stop offset="1" style="stop-color:#fab743;stop-opacity:1"/></linearGradient>
        <linearGradient id="_Linear2" x1="0" y1="0" x2="1" y2="0" gradientUnits="userSpaceOnUse" gradientTransform="matrix(-9.32996,-16.2471,16.2471,-9.32996,211.617,55.1435)"><stop offset="0" style="stop-color:#d96504;stop-opacity:0.7"/><stop offset="1" style="stop-color:#d96504;stop-opacity:0"/></linearGradient>
        <linearGradient id="_Linear3" x1="0" y1="0" x2="1" y2="0" gradientUnits="userSpaceOnUse" gradientTransform="matrix(6.19161,11.0769,-11.0769,6.19161,207.444,5.32385)"><stop offset="0" style="stop-color:#eb6f07;stop-opacity:0.5"/><stop offset="1" style="stop-color:#eb720a;stop-opacity:0"/></linearGradient>
        <linearGradient id="_Linear4" x1="0" y1="0" x2="1" y2="0" gradientUnits="userSpaceOnUse" gradientTransform="matrix(-7.77689,-52.6854,52.6854,-7.77689,239.998,60.8452)"><stop offset="0" style="stop-color:#ee6f05;stop-opacity:1"/><stop offset="1" style="stop-color:#fab743;stop-opacity:1"/></linearGradient>
        <linearGradient id="_Linear5" x1="0" y1="0" x2="1" y2="0" gradientUnits="userSpaceOnUse" gradientTransform="matrix(22.8536,-57.7212,57.7212,22.8536,217.46,60.8606)"><stop offset="0" style="stop-color:#d96504;stop-opacity:0.8"/><stop offset="0.5" style="stop-color:#d96504;stop-opacity:0.2"/><stop offset="1" style="stop-color:#d96504;stop-opacity:0"/></linearGradient>
        <linearGradient id="_Linear6" x1="0" y1="0" x2="1" y2="0" gradientUnits="userSpaceOnUse" gradientTransform="matrix(-7.52555,-52.6854,52.6854,-7.52555,223.939,60.8452)"><stop offset="0" style="stop-color:#ffa95f;stop-opacity:1"/><stop offset="1" style="stop-color:#ffebc8;stop-opacity:1"/></linearGradient>
        <linearGradient id="_Linear7" x1="0" y1="0" x2="1" y2="0" gradientUnits="userSpaceOnUse" gradientTransform="matrix(14.862,27.5257,-27.5257,14.862,223.973,3.77415)"><stop offset="0" style="stop-color:#fff;stop-opacity:0.3"/><stop offset="1" style="stop-color:#fff;stop-opacity:0.06"/></linearGradient>
        <linearGradient id="_Linear8" x1="0" y1="0" x2="1" y2="0" gradientUnits="userSpaceOnUse" gradientTransform="matrix(18.7655,-33.1481,33.1481,18.7655,206.193,62.9378)"><stop offset="0" style="stop-color:#fff;stop-opacity:0.3"/><stop offset="1" style="stop-color:#fff;stop-opacity:0.06"/></linearGradient>
        <linearGradient id="_Linear9" x1="0" y1="0" x2="1" y2="0" gradientUnits="userSpaceOnUse" gradientTransform="matrix(-44.9391,66.5664,-66.5664,-44.9391,186.826,-1.5296)"><stop offset="0" style="stop-color:#fbb743;stop-opacity:1"/><stop offset="1" style="stop-color:#f28333;stop-opacity:1"/><stop offset="1" style="stop-color:#ea6b00;stop-opacity:1"/></linearGradient>
    </defs>
</svg>
